<svg xmlns="http://www.w3.org/2000/svg" xml:space="preserve" fill-rule="evenodd" stroke-linejoin="round" stroke-miterlimit="2" clip-rule="evenodd" viewBox="0 0 283 50"><path fill="none" d="M0 0h282.95v50H0z"/><clipPath id="a"><path d="M0 0h282.95v50H0z"/></clipPath><g clip-path="url(#a)"><path fill="#fff" fill-rule="nonzero" d="M40.507 14.825c4.047 0 7.252 1.246 9.616 3.738s3.546 6.23 3.546 11.215v19.553h-7.512V30.8c0-2.982-.621-5.229-1.863-6.742-1.242-1.512-3.025-2.268-5.349-2.268-2.524 0-4.548.884-6.07 2.652-1.523 1.768-2.284 4.292-2.284 7.572v17.317h-7.513V30.8c0-2.982-.621-5.229-1.863-6.742-1.242-1.512-3.025-2.268-5.349-2.268-2.564 0-4.597.873-6.1 2.62-1.502 1.747-2.254 4.281-2.254 7.604v17.317H0V15.208h7.152v4.345a11.752 11.752 0 0 1 4.507-3.514c1.803-.809 3.807-1.214 6.01-1.214 2.404 0 4.538.479 6.401 1.438 1.863.958 3.336 2.375 4.417 4.249 1.323-1.789 3.025-3.184 5.109-4.185 2.083-1.002 4.387-1.502 6.911-1.502Zm37.322 34.953c-3.245 0-6.17-.745-8.774-2.236-2.605-1.491-4.638-3.568-6.1-6.23-1.463-2.663-2.194-5.677-2.194-9.042 0-3.366.731-6.369 2.194-9.01 1.462-2.642 3.495-4.708 6.1-6.199 2.604-1.491 5.529-2.236 8.774-2.236 3.286 0 6.231.745 8.835 2.236 2.604 1.491 4.638 3.557 6.1 6.199 1.463 2.641 2.194 5.644 2.194 9.01 0 3.365-.731 6.379-2.194 9.042-1.462 2.662-3.496 4.739-6.1 6.23-2.604 1.491-5.549 2.236-8.835 2.236Zm0-6.837c2.765 0 5.049-.98 6.852-2.939 1.803-1.96 2.704-4.537 2.704-7.732 0-3.195-.901-5.773-2.704-7.732-1.803-1.96-4.087-2.94-6.852-2.94-2.764 0-5.038.98-6.821 2.94-1.783 1.959-2.674 4.537-2.674 7.732 0 3.195.891 5.772 2.674 7.732 1.783 1.959 4.057 2.939 6.821 2.939Zm55.593-41.024v47.414h-7.212v-4.409c-1.242 1.619-2.775 2.833-4.598 3.642-1.823.81-3.836 1.214-6.04 1.214-3.085 0-5.86-.724-8.324-2.172-2.464-1.449-4.397-3.504-5.799-6.167-1.403-2.662-2.104-5.719-2.104-9.169 0-3.451.701-6.497 2.104-9.138 1.402-2.641 3.335-4.686 5.799-6.135 2.464-1.448 5.239-2.172 8.324-2.172 2.124 0 4.067.383 5.83 1.15 1.763.767 3.265 1.917 4.507 3.451V1.917h7.513Zm-16.948 41.024c1.803 0 3.425-.437 4.868-1.31 1.442-.873 2.584-2.119 3.425-3.738.842-1.619 1.263-3.493 1.263-5.623 0-2.13-.421-4.005-1.263-5.624-.841-1.618-1.983-2.864-3.425-3.738-1.443-.873-3.065-1.31-4.868-1.31-1.803 0-3.426.437-4.868 1.31-1.443.874-2.585 2.12-3.426 3.738-.842 1.619-1.262 3.494-1.262 5.624 0 2.13.42 4.004 1.262 5.623.841 1.619 1.983 2.865 3.426 3.738 1.442.873 3.065 1.31 4.868 1.31Zm33.776-22.749c2.163-3.578 5.97-5.367 11.419-5.367v7.604a8.976 8.976 0 0 0-1.743-.192c-2.925 0-5.209.906-6.852 2.716-1.642 1.811-2.464 4.42-2.464 7.828v16.55h-7.512V15.208h7.152v4.984Zm17.609-4.984h7.513v34.123h-7.513V15.208Zm3.786-5.623c-1.362 0-2.504-.458-3.425-1.374-.922-.916-1.383-2.055-1.383-3.418 0-1.364.461-2.503 1.383-3.419C169.141.458 170.283 0 171.645 0c1.363 0 2.505.437 3.426 1.31.922.873 1.382 1.97 1.382 3.291 0 1.406-.45 2.588-1.352 3.546-.901.959-2.053 1.438-3.456 1.438Zm31.613 5.24c4.047 0 7.292 1.257 9.736 3.77 2.444 2.513 3.666 6.241 3.666 11.183v19.553h-7.512V30.8c0-2.982-.661-5.229-1.984-6.742-1.322-1.512-3.205-2.268-5.649-2.268-2.765 0-4.948.884-6.551 2.652-1.603 1.768-2.404 4.313-2.404 7.636v17.253h-7.512V15.208h7.152v4.409c1.242-1.576 2.804-2.769 4.687-3.578 1.883-.809 4.007-1.214 6.371-1.214Zm42.07 32.653c-.882.767-1.953 1.342-3.215 1.725a13.665 13.665 0 0 1-3.997.575c-3.526 0-6.251-.979-8.174-2.939-1.923-1.96-2.885-4.814-2.885-8.563V21.854h-5.288v-6.39h5.288V7.668h7.513v7.796h8.594v6.39h-8.594v16.231c0 1.661.381 2.928 1.142 3.802.761.873 1.863 1.31 3.305 1.31 1.683 0 3.086-.469 4.207-1.406l2.104 5.687Zm24.22-32.653c4.047 0 7.292 1.257 9.736 3.77 2.444 2.513 3.666 6.241 3.666 11.183v19.553h-7.512V30.8c0-2.982-.661-5.229-1.983-6.742-1.323-1.512-3.206-2.268-5.65-2.268-2.764 0-4.948.884-6.551 2.652-1.602 1.768-2.404 4.313-2.404 7.636v17.253h-7.512V1.917h7.512V19.17c1.242-1.406 2.775-2.481 4.598-3.227 1.823-.745 3.856-1.118 6.1-1.118Z"/></g></svg>