<?xml version="1.0" encoding="UTF-8" standalone="no"?>
<!DOCTYPE svg PUBLIC "-//W3C//DTD SVG 1.1//EN" "http://www.w3.org/Graphics/SVG/1.1/DTD/svg11.dtd">
<svg width="100%" height="100%" viewBox="0 0 283 51" version="1.1" xmlns="http://www.w3.org/2000/svg" xmlns:xlink="http://www.w3.org/1999/xlink" xml:space="preserve" xmlns:serif="http://www.serif.com/" style="fill-rule:evenodd;clip-rule:evenodd;stroke-linejoin:round;stroke-miterlimit:2;">
    <rect id="Word-word-light" serif:id="Word/word-light" x="-0" y="0.538" width="282.95" height="50" style="fill:none;"/>
    <clipPath id="_clip1">
        <rect x="-0" y="0.538" width="282.95" height="50"/>
    </clipPath>
    <g clip-path="url(#_clip1)">
        <g id="Word">
            <path d="M40.507,15.363C44.554,15.363 47.759,16.609 50.123,19.101C52.487,21.594 53.669,25.332 53.669,30.316L53.669,49.869L46.157,49.869L46.157,31.338C46.157,28.356 45.536,26.109 44.294,24.597C43.052,23.085 41.269,22.328 38.945,22.328C36.421,22.328 34.397,23.212 32.875,24.98C31.352,26.748 30.591,29.272 30.591,32.552L30.591,49.869L23.078,49.869L23.078,31.338C23.078,28.356 22.457,26.109 21.215,24.597C19.973,23.085 18.19,22.328 15.866,22.328C13.302,22.328 11.269,23.202 9.766,24.948C8.264,26.695 7.512,29.23 7.512,32.552L7.512,49.869L-0,49.869L-0,15.747L7.152,15.747L7.152,20.092C8.354,18.558 9.856,17.387 11.659,16.577C13.462,15.768 15.466,15.363 17.669,15.363C20.073,15.363 22.207,15.843 24.07,16.801C25.933,17.76 27.406,19.176 28.487,21.05C29.81,19.261 31.512,17.866 33.596,16.865C35.679,15.864 37.983,15.363 40.507,15.363Z" style="fill-rule:nonzero;"/>
            <path d="M77.829,50.317C74.584,50.317 71.659,49.571 69.055,48.08C66.45,46.589 64.417,44.513 62.955,41.85C61.492,39.187 60.761,36.174 60.761,32.808C60.761,29.443 61.492,26.439 62.955,23.798C64.417,21.157 66.45,19.091 69.055,17.6C71.659,16.109 74.584,15.363 77.829,15.363C81.115,15.363 84.06,16.109 86.664,17.6C89.268,19.091 91.302,21.157 92.764,23.798C94.227,26.439 94.958,29.443 94.958,32.808C94.958,36.174 94.227,39.187 92.764,41.85C91.302,44.513 89.268,46.589 86.664,48.08C84.06,49.571 81.115,50.317 77.829,50.317ZM77.829,43.479C80.594,43.479 82.878,42.5 84.681,40.54C86.484,38.58 87.385,36.003 87.385,32.808C87.385,29.613 86.484,27.036 84.681,25.076C82.878,23.117 80.594,22.137 77.829,22.137C75.065,22.137 72.791,23.117 71.008,25.076C69.225,27.036 68.334,29.613 68.334,32.808C68.334,36.003 69.225,38.58 71.008,40.54C72.791,42.5 75.065,43.479 77.829,43.479Z" style="fill-rule:nonzero;"/>
            <path d="M133.422,2.455L133.422,49.869L126.21,49.869L126.21,45.46C124.968,47.079 123.435,48.293 121.612,49.103C119.789,49.912 117.776,50.317 115.572,50.317C112.487,50.317 109.712,49.593 107.248,48.144C104.784,46.696 102.851,44.64 101.449,41.978C100.046,39.315 99.345,36.259 99.345,32.808C99.345,29.357 100.046,26.312 101.449,23.67C102.851,21.029 104.784,18.984 107.248,17.536C109.712,16.088 112.487,15.363 115.572,15.363C117.696,15.363 119.639,15.747 121.402,16.514C123.165,17.28 124.667,18.431 125.909,19.964L125.909,2.455L133.422,2.455ZM116.474,43.479C118.277,43.479 119.899,43.043 121.342,42.169C122.784,41.296 123.926,40.05 124.767,38.431C125.609,36.813 126.03,34.938 126.03,32.808C126.03,30.678 125.609,28.804 124.767,27.185C123.926,25.566 122.784,24.32 121.342,23.447C119.899,22.573 118.277,22.137 116.474,22.137C114.671,22.137 113.048,22.573 111.606,23.447C110.163,24.32 109.021,25.566 108.18,27.185C107.338,28.804 106.918,30.678 106.918,32.808C106.918,34.938 107.338,36.813 108.18,38.431C109.021,40.05 110.163,41.296 111.606,42.169C113.048,43.043 114.671,43.479 116.474,43.479Z" style="fill-rule:nonzero;"/>
            <path d="M150.25,20.731C152.413,17.153 156.22,15.363 161.669,15.363L161.669,22.967C161.028,22.84 160.447,22.776 159.926,22.776C157.001,22.776 154.717,23.681 153.074,25.492C151.432,27.302 150.61,29.911 150.61,33.319L150.61,49.869L143.098,49.869L143.098,15.747L150.25,15.747L150.25,20.731Z" style="fill-rule:nonzero;"/>
            <path d="M167.859,15.747L175.372,15.747L175.372,49.869L167.859,49.869L167.859,15.747ZM171.645,10.124C170.283,10.124 169.141,9.666 168.22,8.75C167.298,7.834 166.837,6.694 166.837,5.331C166.837,3.968 167.298,2.828 168.22,1.912C169.141,0.996 170.283,0.538 171.645,0.538C173.008,0.538 174.15,0.975 175.071,1.848C175.993,2.722 176.453,3.819 176.453,5.139C176.453,6.545 176.003,7.727 175.101,8.686C174.2,9.644 173.048,10.124 171.645,10.124Z" style="fill-rule:nonzero;"/>
            <path d="M203.258,15.363C207.305,15.363 210.55,16.62 212.994,19.133C215.438,21.647 216.66,25.374 216.66,30.316L216.66,49.869L209.148,49.869L209.148,31.338C209.148,28.356 208.487,26.109 207.164,24.597C205.842,23.085 203.959,22.328 201.515,22.328C198.75,22.328 196.567,23.212 194.964,24.98C193.361,26.748 192.56,29.294 192.56,32.616L192.56,49.869L185.048,49.869L185.048,15.747L192.2,15.747L192.2,20.156C193.442,18.58 195.004,17.387 196.887,16.577C198.77,15.768 200.894,15.363 203.258,15.363Z" style="fill-rule:nonzero;"/>
            <path d="M245.328,48.016C244.446,48.783 243.375,49.358 242.113,49.742C240.85,50.125 239.518,50.317 238.116,50.317C234.59,50.317 231.865,49.337 229.942,47.377C228.019,45.418 227.057,42.564 227.057,38.815L227.057,22.392L221.769,22.392L221.769,16.002L227.057,16.002L227.057,8.206L234.57,8.206L234.57,16.002L243.164,16.002L243.164,22.392L234.57,22.392L234.57,38.623C234.57,40.284 234.951,41.552 235.712,42.425C236.473,43.298 237.575,43.735 239.017,43.735C240.7,43.735 242.103,43.266 243.224,42.329L245.328,48.016Z" style="fill-rule:nonzero;"/>
            <path d="M269.548,15.363C273.595,15.363 276.84,16.62 279.284,19.133C281.728,21.647 282.95,25.374 282.95,30.316L282.95,49.869L275.438,49.869L275.438,31.338C275.438,28.356 274.777,26.109 273.455,24.597C272.132,23.085 270.249,22.328 267.805,22.328C265.041,22.328 262.857,23.212 261.254,24.98C259.652,26.748 258.85,29.294 258.85,32.616L258.85,49.869L251.338,49.869L251.338,2.455L258.85,2.455L258.85,19.709C260.092,18.303 261.625,17.227 263.448,16.482C265.271,15.736 267.304,15.363 269.548,15.363Z" style="fill-rule:nonzero;"/>
        </g>
    </g>
</svg>
