<svg xmlns="http://www.w3.org/2000/svg" xml:space="preserve" fill-rule="evenodd" stroke-linecap="round" stroke-linejoin="round" clip-rule="evenodd" viewBox="0 0 24 24"><path fill="none" d="M0 0h24v24H0z"/><path fill="none" stroke="#000" stroke-width="2" d="M3.778 19.778C3.778 21.004 4.774 22 6 22a2.224 2.224 0 0 0 2.222-2.222v-3.334A2.224 2.224 0 0 0 6 14.222V7.556c0-1.829 1.171-3.334 3-3.334s3 1.505 3 3.334v8.888"/><path fill="none" stroke="#000" stroke-miterlimit="1.5" stroke-width="2" d="m7 15-1-2-1 2h2"/><path fill="none" stroke="#000" stroke-width="2" d="M20.222 4.444A2.224 2.224 0 0 0 18 2.222a2.224 2.224 0 0 0-2.222 2.222v3.334C15.778 9.004 16.774 10 18 10v6.667C18 18.495 16.829 20 15 20s-3-1.505-3-3.333V7.778"/><path fill="none" stroke="#000" stroke-miterlimit="1.5" stroke-width="2" d="m17 9.222 1 2 1-2h-2"/></svg>