<?xml version="1.0" encoding="UTF-8" standalone="no"?>
<!DOCTYPE svg PUBLIC "-//W3C//DTD SVG 1.1//EN" "http://www.w3.org/Graphics/SVG/1.1/DTD/svg11.dtd">
<svg width="100%" height="100%" viewBox="0 0 24 24" version="1.1" xmlns="http://www.w3.org/2000/svg" xmlns:xlink="http://www.w3.org/1999/xlink" xml:space="preserve" xmlns:serif="http://www.serif.com/" style="fill-rule:evenodd;clip-rule:evenodd;stroke-linecap:round;stroke-linejoin:round;">
    <rect id="Fabric" x="0" y="0" width="24" height="24" style="fill:none;"/>
    <path d="M21.318,10.069C19.433,8.142 15.664,4.29 13.891,2.464C13.493,2.055 12.992,1.628 11.652,2.549C9.926,3.735 10.918,4.447 11.197,4.753C11.91,5.537 18.491,12.472 19.628,13.774C19.838,14.015 17.87,11.823 19.059,10.327C19.534,9.728 20.622,9.284 21.318,10.069C21.883,10.707 22.241,11.637 21.018,12.647C18.881,14.413 12.179,19.791 10.015,21.575C8.926,22.473 7.535,21.779 6.908,21.049C6.253,20.285 4.253,18.057 2.461,16.013C1.981,15.466 2.101,14.312 2.653,13.837C5.698,11.21 10.626,7.441 12.357,5.971" style="fill:none;fill-rule:nonzero;stroke:#000;stroke-width:1.99px;"/>
</svg>
