<svg xmlns="http://www.w3.org/2000/svg" xml:space="preserve" fill-rule="evenodd" stroke-linecap="round" stroke-linejoin="round" stroke-miterlimit="1.5" clip-rule="evenodd" viewBox="0 0 24 24"><path fill="none" d="M0 0h24v24H0z"/><clipPath id="a"><path d="M0 0h24v24H0z"/></clipPath><g fill="none" stroke="#000" stroke-width="2" clip-path="url(#a)"><path d="m10.25 16.208 4.125-2.185-8.25-4.372L2 11.837"/><path d="M10.25 20.58 2 16.208v-4.371m8.25 8.743 4.125-2.186v-4.371m-8.25-4.372V5.279L12.312 2l8.25 4.372-6.187 3.279v4.372"/><path d="M8.844 10.048V7.167L6.125 5.726m5.156 5.715V8.559L14 10m.375 8.394v4.372L20.5 19.52l.062-4.404V6.372M2 11.837l8.25 4.371m0 0v4.372m-.938-.497 5.063 2.683m6.187 9.837L35 24.952m-10.313 1.093-2.062-1.093"/></g></svg>