<svg xmlns="http://www.w3.org/2000/svg" xml:space="preserve" fill-rule="evenodd" stroke-linecap="round" stroke-linejoin="round" stroke-miterlimit="1.5" clip-rule="evenodd" viewBox="0 0 24 24"><path fill="none" d="M0 0h24v24H0z"/><path fill="none" stroke="#000" stroke-width="2" d="M12 2.578 8.422 4.367 12 6.155l3.578-1.788L12 2.578ZM18.155 5.5l-3.577 1.789 3.577 1.789 3.578-1.789L18.155 5.5ZM12 8.578l-3.578 1.789L12 12.155l3.578-1.788L12 8.578Z"/><path fill="none" stroke="#000" stroke-width="2" d="M12 12.155v3.578l3.578-1.789v-3.577L12 12.155Zm-3.578 1.789v-3.577L12 12.155v3.578l-3.578-1.789ZM12 18.811v3.578l3.578-1.789v-3.578L12 18.811ZM8.422 20.6v-3.578L12 18.811v3.578L8.422 20.6Zm9.733-11.522v3.577l3.578-1.788V7.289l-3.578 1.789Zm0 6.655v3.578l3.578-1.789v-3.578l-3.578 1.789ZM5.845 5.5l3.577 1.789-3.577 1.789-3.578-1.789L5.845 5.5Zm0 3.578v3.577l-3.578-1.788V7.289l3.578 1.789Zm0 6.655v3.578l-3.578-1.789v-3.578l3.578 1.789Z"/></svg>