<svg xmlns="http://www.w3.org/2000/svg" xml:space="preserve" fill-rule="evenodd" stroke-linecap="round" stroke-linejoin="round" stroke-miterlimit="2" clip-rule="evenodd" viewBox="0 0 24 24"><path fill="none" d="M0 0h24v24H0z"/><path fill="none" stroke="#000" stroke-width="2" d="M10.324 3.958a.354.354 0 0 0-.354-.354H3.955a.353.353 0 0 0-.354.354v5.999c0 .196.158.355.354.355H9.97a.355.355 0 0 0 .354-.355V3.958Zm0 10.087a.354.354 0 0 0-.354-.354H3.955a.353.353 0 0 0-.354.354v5.999c0 .196.158.355.354.355H9.97a.355.355 0 0 0 .354-.355v-5.999ZM20.408 3.958a.353.353 0 0 0-.354-.354h-6.015a.354.354 0 0 0-.354.354v5.999c0 .196.159.355.354.355h6.015a.354.354 0 0 0 .354-.355V3.958Zm1.705 14.239a.354.354 0 0 0 0-.5l-3.925-3.925a.355.355 0 0 0-.501 0l-3.915 3.915a.355.355 0 0 0 0 .501l3.925 3.924a.353.353 0 0 0 .501 0l3.915-3.915Z"/></svg>