<svg xmlns="http://www.w3.org/2000/svg" xml:space="preserve" fill-rule="evenodd" stroke-linecap="round" stroke-linejoin="round" clip-rule="evenodd" viewBox="0 0 24 24"><path fill="none" d="M0 0h24v24H0z"/><circle cx="12" cy="7" r="1" fill="none" stroke="#000" stroke-width="2"/><path fill="none" stroke="#000" stroke-width="2" d="m9 20 3-6 3 6m-6-7 3-3 3 3m-3-3v4"/><path fill="none" stroke="#000" stroke-miterlimit="1.5" stroke-width="2" d="M16 3.208c3.531.355 6 1.163 6 2.103 0 1.265-4.481 2.293-10 2.293S2 6.576 2 5.311c0-.94 2.469-1.748 6-2.103 0 0 2.667-.208 4-.208 1.333 0 2.775.085 4 .208Zm0 7c3.531.386 6 1.268 6 2.292 0 1.38-4.481 2.5-10 2.5S2 13.88 2 12.5c0-1.024 2.469-1.906 6-2.292m8 7c3.531.386 6 1.268 6 2.292 0 1.38-4.481 2.5-10 2.5S2 20.88 2 19.5c0-1.024 2.469-1.906 6-2.292"/></svg>