<?xml version="1.0" encoding="UTF-8" standalone="no"?>
<!DOCTYPE svg PUBLIC "-//W3C//DTD SVG 1.1//EN" "http://www.w3.org/Graphics/SVG/1.1/DTD/svg11.dtd">
<svg width="100%" height="100%" viewBox="0 0 24 24" version="1.1" xmlns="http://www.w3.org/2000/svg" xmlns:xlink="http://www.w3.org/1999/xlink" xml:space="preserve" xmlns:serif="http://www.serif.com/" style="fill-rule:evenodd;clip-rule:evenodd;stroke-linecap:round;stroke-linejoin:round;">
    <rect id="Transportation" x="0" y="0" width="24" height="24" style="fill:none;"/>
    <circle cx="12" cy="7" r="1" style="fill:none;stroke:#000;stroke-width:2px;"/>
    <path d="M9,20L12,14L15,20" style="fill:none;fill-rule:nonzero;stroke:#000;stroke-width:2px;"/>
    <path d="M9,13L12,10L15,13" style="fill:none;fill-rule:nonzero;stroke:#000;stroke-width:2px;"/>
    <path d="M12,10L12,14" style="fill:none;fill-rule:nonzero;stroke:#000;stroke-width:2px;"/>
    <path d="M16,3.208C19.531,3.563 22,4.371 22,5.311C22,6.576 17.519,7.604 12,7.604C6.481,7.604 2,6.576 2,5.311C2,4.371 4.469,3.563 8,3.208C8,3.208 10.667,3 12,3C13.333,3 14.775,3.085 16,3.208Z" style="fill:none;stroke:#000;stroke-width:2px;stroke-miterlimit:1.5;"/>
    <path d="M16,10.208C19.531,10.594 22,11.476 22,12.5C22,13.88 17.519,15 12,15C6.481,15 2,13.88 2,12.5C2,11.476 4.469,10.594 8,10.208" style="fill:none;stroke:#000;stroke-width:2px;stroke-miterlimit:1.5;"/>
    <path d="M16,17.208C19.531,17.594 22,18.476 22,19.5C22,20.88 17.519,22 12,22C6.481,22 2,20.88 2,19.5C2,18.476 4.469,17.594 8,17.208" style="fill:none;stroke:#000;stroke-width:2px;stroke-miterlimit:1.5;"/>
</svg>
