<svg xmlns="http://www.w3.org/2000/svg" xml:space="preserve" fill-rule="evenodd" stroke-linecap="round" clip-rule="evenodd" viewBox="0 0 24 24"><path fill="none" d="M0 0h24v24H0z"/><clipPath id="a"><path d="M0 0h24v24H0z"/></clipPath><g clip-path="url(#a)"><path fill="none" stroke="#000" stroke-width="2" d="M11.712 10.477c-.156-.808-1.183-.966-1.816-.661-1.132.547-1.304 2.042-.695 3.038.894 1.462 2.912 1.65 4.26.728 1.796-1.229 2.001-3.786.761-5.481-1.559-2.133-4.661-2.354-6.702-.795-2.473 1.888-2.709 5.539-.829 7.925 2.215 2.811 6.416 3.063 9.146.862 3.152-2.541 3.419-7.295.896-10.368-2.866-3.492-8.173-3.775-11.59-.93-3.832 3.192-4.13 9.052-.963 12.812 3.517 4.173 9.932 4.487 14.034.996 4.515-3.841 4.842-10.81 1.03-15.255"/></g></svg>