<?xml version="1.0" encoding="UTF-8" standalone="no"?>
<!DOCTYPE svg PUBLIC "-//W3C//DTD SVG 1.1//EN" "http://www.w3.org/Graphics/SVG/1.1/DTD/svg11.dtd">
<svg width="100%" height="100%" viewBox="0 0 540 101" version="1.1" xmlns="http://www.w3.org/2000/svg" xmlns:xlink="http://www.w3.org/1999/xlink" xml:space="preserve" xmlns:serif="http://www.serif.com/" style="fill-rule:evenodd;clip-rule:evenodd;stroke-linejoin:round;stroke-miterlimit:1.5;">
    <rect id="Wordmark-wordmark-light" serif:id="Wordmark/wordmark-light" x="0" y="0.538" width="539.95" height="100" style="fill:none;"/>
    <clipPath id="_clip1">
        <rect x="0" y="0.538" width="539.95" height="100"/>
    </clipPath>
    <g clip-path="url(#_clip1)">
        <g id="Wordmark">
            <g id="Word">
                <path d="M177.072,31.059C182.801,31.059 187.338,32.823 190.684,36.351C194.031,39.879 195.704,45.17 195.704,52.226L195.704,79.905L185.069,79.905L185.069,53.673C185.069,49.452 184.19,46.271 182.432,44.13C180.674,41.989 178.15,40.919 174.86,40.919C171.287,40.919 168.423,42.17 166.267,44.673C164.112,47.175 163.035,50.748 163.035,55.392L163.035,79.905L152.4,79.905L152.4,53.673C152.4,49.452 151.521,46.271 149.763,44.13C148.004,41.989 145.48,40.919 142.191,40.919C138.561,40.919 135.683,42.155 133.556,44.627C131.429,47.1 130.365,50.688 130.365,55.392L130.365,79.905L119.731,79.905L119.731,31.602L129.855,31.602L129.855,37.753C131.556,35.582 133.683,33.924 136.236,32.778C138.788,31.632 141.624,31.059 144.743,31.059C148.146,31.059 151.166,31.738 153.804,33.094C156.441,34.451 158.525,36.456 160.057,39.11C161.929,36.577 164.339,34.602 167.288,33.185C170.238,31.768 173.499,31.059 177.072,31.059Z" style="fill-rule:nonzero;"/>
                <path d="M229.904,80.538C225.31,80.538 221.17,79.483 217.483,77.373C213.797,75.262 210.918,72.322 208.848,68.553C206.778,64.784 205.743,60.518 205.743,55.754C205.743,50.99 206.778,46.738 208.848,42.999C210.918,39.26 213.797,36.336 217.483,34.225C221.17,32.114 225.31,31.059 229.904,31.059C234.555,31.059 238.724,32.114 242.411,34.225C246.097,36.336 248.976,39.26 251.046,42.999C253.116,46.738 254.151,50.99 254.151,55.754C254.151,60.518 253.116,64.784 251.046,68.553C248.976,72.322 246.097,75.262 242.411,77.373C238.724,79.483 234.555,80.538 229.904,80.538ZM229.904,70.86C233.818,70.86 237.051,69.473 239.603,66.699C242.155,63.925 243.431,60.276 243.431,55.754C243.431,51.231 242.155,47.582 239.603,44.808C237.051,42.034 233.818,40.647 229.904,40.647C225.991,40.647 222.772,42.034 220.248,44.808C217.724,47.582 216.462,51.231 216.462,55.754C216.462,60.276 217.724,63.925 220.248,66.699C222.772,69.473 225.991,70.86 229.904,70.86Z" style="fill-rule:nonzero;"/>
                <path d="M308.6,12.787L308.6,79.905L298.391,79.905L298.391,73.664C296.632,75.955 294.463,77.674 291.882,78.82C289.302,79.966 286.452,80.538 283.332,80.538C278.965,80.538 275.037,79.513 271.549,77.463C268.061,75.413 265.324,72.503 263.339,68.734C261.354,64.965 260.362,60.638 260.362,55.754C260.362,50.869 261.354,46.557 263.339,42.818C265.324,39.08 268.061,36.185 271.549,34.135C275.037,32.084 278.965,31.059 283.332,31.059C286.338,31.059 289.089,31.602 291.585,32.687C294.08,33.773 296.207,35.401 297.965,37.572L297.965,12.787L308.6,12.787ZM284.608,70.86C287.161,70.86 289.458,70.242 291.499,69.005C293.541,67.769 295.158,66.005 296.349,63.714C297.54,61.422 298.135,58.769 298.135,55.754C298.135,52.738 297.54,50.085 296.349,47.793C295.158,45.502 293.541,43.738 291.499,42.502C289.458,41.266 287.161,40.647 284.608,40.647C282.056,40.647 279.759,41.266 277.717,42.502C275.675,43.738 274.059,45.502 272.868,47.793C271.677,50.085 271.081,52.738 271.081,55.754C271.081,58.769 271.677,61.422 272.868,63.714C274.059,66.005 275.675,67.769 277.717,69.005C279.759,70.242 282.056,70.86 284.608,70.86Z" style="fill-rule:nonzero;"/>
                <path d="M332.421,38.657C335.484,33.592 340.872,31.059 348.586,31.059L348.586,41.823C347.678,41.642 346.856,41.552 346.118,41.552C341.978,41.552 338.745,42.833 336.42,45.396C334.094,47.959 332.932,51.653 332.932,56.477L332.932,79.905L322.297,79.905L322.297,31.602L332.421,31.602L332.421,38.657Z" style="fill-rule:nonzero;"/>
                <path d="M357.348,31.602L367.983,31.602L367.983,79.905L357.348,79.905L357.348,31.602ZM362.708,23.642C360.78,23.642 359.163,22.993 357.859,21.697C356.554,20.4 355.902,18.787 355.902,16.858C355.902,14.928 356.554,13.315 357.859,12.018C359.163,10.722 360.78,10.073 362.708,10.073C364.637,10.073 366.253,10.691 367.558,11.928C368.862,13.164 369.514,14.717 369.514,16.586C369.514,18.576 368.876,20.25 367.6,21.606C366.324,22.963 364.693,23.642 362.708,23.642Z" style="fill-rule:nonzero;"/>
                <path d="M407.458,31.059C413.187,31.059 417.781,32.838 421.241,36.396C424.7,39.954 426.43,45.231 426.43,52.226L426.43,79.905L415.796,79.905L415.796,53.673C415.796,49.452 414.86,46.271 412.988,44.13C411.117,41.989 408.451,40.919 404.991,40.919C401.078,40.919 397.986,42.17 395.718,44.673C393.449,47.175 392.315,50.778 392.315,55.482L392.315,79.905L381.68,79.905L381.68,31.602L391.804,31.602L391.804,37.843C393.563,35.612 395.774,33.924 398.44,32.778C401.106,31.632 404.112,31.059 407.458,31.059Z" style="fill-rule:nonzero;"/>
                <path d="M467.012,77.282C465.764,78.368 464.247,79.182 462.46,79.724C460.673,80.267 458.788,80.538 456.802,80.538C451.811,80.538 447.955,79.151 445.232,76.377C442.51,73.604 441.148,69.563 441.148,64.256L441.148,41.009L433.662,41.009L433.662,31.964L441.148,31.964L441.148,20.928L451.783,20.928L451.783,31.964L463.949,31.964L463.949,41.009L451.783,41.009L451.783,63.985C451.783,66.337 452.322,68.131 453.399,69.367C454.477,70.603 456.037,71.222 458.079,71.222C460.461,71.222 462.446,70.558 464.034,69.231L467.012,77.282Z" style="fill-rule:nonzero;"/>
                <path d="M501.297,31.059C507.026,31.059 511.62,32.838 515.08,36.396C518.539,39.954 520.269,45.231 520.269,52.226L520.269,79.905L509.635,79.905L509.635,53.673C509.635,49.452 508.699,46.271 506.827,44.13C504.956,41.989 502.29,40.919 498.83,40.919C494.917,40.919 491.825,42.17 489.557,44.673C487.288,47.175 486.154,50.778 486.154,55.482L486.154,79.905L475.519,79.905L475.519,12.787L486.154,12.787L486.154,37.21C487.912,35.22 490.081,33.697 492.662,32.642C495.243,31.587 498.121,31.059 501.297,31.059Z" style="fill-rule:nonzero;"/>
            </g>
            <g id="Mark">
                <clipPath id="_clip2">
                    <path d="M101.538,-1L-1.538,-1L-1.538,102.077L101.538,102.077L101.538,-1ZM45.94,49.823L46.017,51.606L54.984,85.069L62.949,82.935L54.219,50.355L60.114,16.924L51.993,15.492L45.94,49.823Z"/>
                </clipPath>
                <g clip-path="url(#_clip2)">
                    <path d="M50,17.038C68.489,17.038 83.5,32.049 83.5,50.538C83.5,69.028 68.489,84.038 50,84.038C31.511,84.038 16.5,69.028 16.5,50.538C16.5,32.049 31.511,17.038 50,17.038ZM50,25.538C63.798,25.538 75,36.741 75,50.538C75,64.336 63.798,75.538 50,75.538C36.202,75.538 25,64.336 25,50.538C25,36.741 36.202,25.538 50,25.538Z" style="fill:#30b27c;"/>
                </g>
                <clipPath id="_clip3">
                    <path d="M0,0.538L0,46.538L50,46.538L51.368,46.78L99,64.116L96.264,71.634L49.295,54.538L0,54.538L0,100.538L100,100.538L100,0.538L0,0.538Z"/>
                </clipPath>
                <g clip-path="url(#_clip3)">
                    <path d="M50,0.538C77.596,0.538 100,22.943 100,50.538C100,78.134 77.596,100.538 50,100.538C22.404,100.538 0,78.134 0,50.538C0,22.943 22.404,0.538 50,0.538ZM50,9.038C72.904,9.038 91.5,27.634 91.5,50.538C91.5,73.443 72.904,92.038 50,92.038C27.096,92.038 8.5,73.443 8.5,50.538C8.5,27.634 27.096,9.038 50,9.038Z" style="fill:#30b27c;"/>
                </g>
                <clipPath id="_clip4">
                    <path d="M50,0.538C77.596,0.538 100,22.943 100,50.538C100,78.134 77.596,100.538 50,100.538C22.404,100.538 -0,78.134 -0,50.538C-0,22.943 22.404,0.538 50,0.538ZM50,40.088C55.768,40.088 60.451,44.771 60.451,50.538C60.451,56.306 55.768,60.989 50,60.989C44.232,60.989 39.549,56.306 39.549,50.538C39.549,44.771 44.232,40.088 50,40.088Z"/>
                </clipPath>
                <g clip-path="url(#_clip4)">
                    <path d="M50,50.538L5.171,76.42" style="fill:none;stroke:#30b27c;stroke-width:8px;"/>
                </g>
                <clipPath id="_clip5">
                    <path d="M50,0.538C77.596,0.538 100,22.943 100,50.538C100,78.134 77.596,100.538 50,100.538C22.404,100.538 0,78.134 0,50.538C0,22.943 22.404,0.538 50,0.538ZM50,25.538C63.798,25.538 75,36.741 75,50.538C75,64.336 63.798,75.538 50,75.538C36.202,75.538 25,64.336 25,50.538C25,36.741 36.202,25.538 50,25.538Z"/>
                </clipPath>
                <g clip-path="url(#_clip5)">
                    <path d="M50,50.538L100,37.141" style="fill:none;stroke:#30b27c;stroke-width:8px;"/>
                </g>
                <path d="M37.243,53.285L35,45.538L43,36.538L54,33.538L58,37.538L52,43.538L48,44.538L45,48.538L46.12,52.779L49.232,55.869L54.196,55.271L57.062,52.306L65.258,50.11L66.722,55.574L58.624,63.601L46.83,66.029L41.243,60.213L37.243,53.285Z" style="fill:#30b27c;"/>
            </g>
        </g>
    </g>
</svg>
