<svg xmlns="http://www.w3.org/2000/svg" xml:space="preserve" fill-rule="evenodd" stroke-linejoin="round" stroke-miterlimit="1.5" clip-rule="evenodd" viewBox="0 0 540 100"><path fill="none" d="M0 0h539.95v100H0z"/><clipPath id="a"><path d="M0 0h539.95v100H0z"/></clipPath><g clip-path="url(#a)"><path fill-rule="nonzero" d="M177.072 30.521c5.729 0 10.266 1.764 13.612 5.291 3.347 3.528 5.02 8.82 5.02 15.875v27.68h-10.635V53.135c0-4.222-.879-7.403-2.637-9.543-1.758-2.141-4.282-3.212-7.572-3.212-3.573 0-6.437 1.252-8.593 3.754-2.155 2.503-3.232 6.076-3.232 10.719v24.514H152.4V53.135c0-4.222-.879-7.403-2.637-9.543-1.759-2.141-4.283-3.212-7.572-3.212-3.63 0-6.508 1.237-8.635 3.709s-3.191 6.061-3.191 10.764v24.514h-10.634V31.063h10.124v6.151c1.701-2.171 3.828-3.829 6.381-4.975 2.552-1.145 5.388-1.718 8.507-1.718 3.403 0 6.423.678 9.061 2.035 2.637 1.357 4.721 3.362 6.253 6.015 1.872-2.533 4.282-4.507 7.231-5.925 2.95-1.417 6.211-2.125 9.784-2.125ZM229.904 80c-4.594 0-8.734-1.055-12.421-3.166-3.686-2.111-6.565-5.05-8.635-8.819-2.07-3.769-3.105-8.036-3.105-12.8 0-4.764 1.035-9.015 3.105-12.754 2.07-3.739 4.949-6.664 8.635-8.774 3.687-2.111 7.827-3.166 12.421-3.166 4.651 0 8.82 1.055 12.507 3.166 3.686 2.11 6.565 5.035 8.635 8.774 2.07 3.739 3.105 7.99 3.105 12.754 0 4.764-1.035 9.031-3.105 12.8-2.07 3.769-4.949 6.708-8.635 8.819-3.687 2.111-7.856 3.166-12.507 3.166Zm0-9.679c3.914 0 7.147-1.387 9.699-4.161 2.552-2.774 3.828-6.422 3.828-10.945 0-4.523-1.276-8.171-3.828-10.945-2.552-2.774-5.785-4.161-9.699-4.161-3.913 0-7.132 1.387-9.656 4.161-2.524 2.774-3.786 6.422-3.786 10.945 0 4.523 1.262 8.171 3.786 10.945 2.524 2.774 5.743 4.161 9.656 4.161ZM308.6 12.249v67.118h-10.209v-6.242c-1.759 2.292-3.928 4.011-6.509 5.156-2.58 1.146-5.43 1.719-8.55 1.719-4.367 0-8.295-1.025-11.783-3.075-3.488-2.051-6.225-4.96-8.21-8.729-1.985-3.769-2.977-8.096-2.977-12.981s.992-9.196 2.977-12.935c1.985-3.739 4.722-6.634 8.21-8.684 3.488-2.05 7.416-3.075 11.783-3.075 3.006 0 5.757.542 8.253 1.628 2.495 1.085 4.622 2.714 6.38 4.884V12.249H308.6Zm-23.992 58.072c2.553 0 4.85-.618 6.891-1.854 2.042-1.236 3.659-3 4.85-5.292 1.191-2.291 1.786-4.945 1.786-7.96 0-3.015-.595-5.668-1.786-7.96s-2.808-4.055-4.85-5.292c-2.041-1.236-4.338-1.854-6.891-1.854-2.552 0-4.849.618-6.891 1.854-2.042 1.237-3.658 3-4.849 5.292-1.191 2.292-1.787 4.945-1.787 7.96 0 3.015.596 5.669 1.787 7.96 1.191 2.292 2.807 4.056 4.849 5.292 2.042 1.236 4.339 1.854 6.891 1.854Zm47.813-32.202c3.063-5.066 8.451-7.598 16.165-7.598v10.764c-.908-.181-1.73-.271-2.468-.271-4.14 0-7.373 1.281-9.698 3.844-2.326 2.563-3.488 6.256-3.488 11.081v23.428h-10.635V31.063h10.124v7.056Zm24.927-7.056h10.635v48.304h-10.635V31.063Zm5.36-7.96c-1.928 0-3.545-.648-4.849-1.945-1.305-1.296-1.957-2.909-1.957-4.839 0-1.93.652-3.543 1.957-4.839 1.304-1.297 2.921-1.945 4.849-1.945 1.929 0 3.545.618 4.85 1.854 1.304 1.236 1.956 2.789 1.956 4.659 0 1.99-.638 3.663-1.914 5.02-1.276 1.357-2.907 2.035-4.892 2.035Zm44.75 7.418c5.729 0 10.323 1.779 13.783 5.337 3.459 3.557 5.189 8.834 5.189 15.829v27.68h-10.634V53.135c0-4.222-.936-7.403-2.808-9.543-1.871-2.141-4.537-3.212-7.997-3.212-3.913 0-7.005 1.252-9.273 3.754-2.269 2.503-3.403 6.106-3.403 10.81v24.423H381.68V31.063h10.124v6.242c1.759-2.231 3.97-3.92 6.636-5.066 2.666-1.145 5.672-1.718 9.018-1.718Zm59.554 46.223c-1.248 1.085-2.765 1.899-4.552 2.442-1.787.543-3.672.814-5.658.814-4.991 0-8.847-1.387-11.57-4.161-2.722-2.774-4.084-6.814-4.084-12.121V40.471h-7.486v-9.046h7.486V20.39h10.635v11.035h12.166v9.046h-12.166v22.976c0 2.351.539 4.145 1.616 5.382 1.078 1.236 2.638 1.854 4.68 1.854 2.382 0 4.367-.663 5.955-1.99l2.978 8.051Zm34.285-46.223c5.729 0 10.323 1.779 13.783 5.337 3.459 3.557 5.189 8.834 5.189 15.829v27.68h-10.634V53.135c0-4.222-.936-7.403-2.808-9.543-1.871-2.141-4.537-3.212-7.997-3.212-3.913 0-7.005 1.252-9.273 3.754-2.269 2.503-3.403 6.106-3.403 10.81v24.423h-10.635V12.249h10.635v24.423c1.758-1.99 3.927-3.513 6.508-4.568 2.581-1.056 5.459-1.583 8.635-1.583Z"/><clipPath id="b"><path d="M101.428-1.047H-1.018v102.481h102.446V-1.047ZM46.17 49.482l.077 1.773 8.911 33.27 7.917-2.122-8.677-32.392 5.859-33.238-8.071-1.423-6.016 34.132Z"/></clipPath><g clip-path="url(#b)"><path fill="#30b27c" d="M50.205 16.887c18.376 0 33.295 14.924 33.295 33.306C83.5 68.576 68.581 83.5 50.205 83.5S16.91 68.576 16.91 50.193c0-18.382 14.919-33.306 33.295-33.306Zm0 8.449c13.714 0 24.846 11.139 24.846 24.857 0 13.719-11.132 24.858-24.846 24.858-13.713 0-24.845-11.139-24.845-24.858 0-13.718 11.132-24.857 24.845-24.857Z"/></g><clipPath id="c"><path d="M0 0v46h50l1.368.241L99 63.578l-2.736 7.517L49.295 54H0v46h100V0H0Z"/></clipPath><g clip-path="url(#c)"><path fill="#30b27c" d="M50 0c27.596 0 50 22.404 50 50s-22.404 50-50 50S0 77.596 0 50 22.404 0 50 0Zm0 8.5c22.904 0 41.5 18.596 41.5 41.5S72.904 91.5 50 91.5 8.5 72.904 8.5 50 27.096 8.5 50 8.5Z"/></g><clipPath id="d"><path d="M50 0c27.596 0 50 22.404 50 50s-22.404 50-50 50S0 77.596 0 50 22.404 0 50 0Zm0 39.549c5.768 0 10.451 4.683 10.451 10.451 0 5.768-4.683 10.451-10.451 10.451-5.768 0-10.451-4.683-10.451-10.451 0-5.768 4.683-10.451 10.451-10.451Z"/></clipPath><g clip-path="url(#d)"><path fill="none" stroke="#30b27c" stroke-width="8" d="M50 50 5.171 75.882"/></g><path fill="#30b27c" d="M37.243 52.746 35 45l8-9 11-3 4 4-6 6-4 1-3 4 1.12 4.24 3.112 3.09 4.964-.598 2.866-2.964 8.196-2.196 1.464 5.464-8.098 8.026L46.83 65.49l-5.587-5.815-4-6.929Z"/></g></svg>