<svg xmlns="http://www.w3.org/2000/svg" xml:space="preserve" fill-rule="evenodd" stroke-linejoin="round" stroke-miterlimit="2" clip-rule="evenodd" viewBox="0 0 24 24"><path fill="none" d="M.05 0h24v24h-24z"/><clipPath id="a"><path d="M.05 0h24v24h-24z"/></clipPath><g clip-path="url(#a)"><path d="M4.679 14.971A7.875 7.875 0 0 1 4.101 12c0-4.37 3.553-7.917 7.93-7.917.135 0 .27.003.405.01l-.38 2.151h-.025a5.763 5.763 0 0 0-5.452 7.632l2.346-1.352-.5-1.724 1.923-2.16 2.644-.72.962.96-1.443 1.44-.961.24-.721.96.269 1.018.748.741 1.193-.143.689-.712 1.97-.527.352 1.312-1.946 1.926-2.835.583-1.098-1.141-2.35 1.354a5.755 5.755 0 0 0 4.737 1.801l.566 2.11a7.92 7.92 0 0 1-7.213-2.809l-1.686.972a9.861 9.861 0 0 0 16.694-1.753l2.042.742A12.027 12.027 0 0 1 12.031 24C5.721 24 .54 19.135.05 12.96h2.172a9.78 9.78 0 0 0 .776 2.98l1.681-.969Zm16.51-6.608a9.863 9.863 0 0 0-9.158-6.203c-5.115 0-9.326 3.9-9.809 8.88H.05C.54 4.865 5.721 0 12.031 0 18.664 0 24.05 5.377 24.05 12c0 1.104-.15 2.173-.43 3.19l-2.042-.742a9.833 9.833 0 0 0 .22-3.763l-1.879.502c.027.268.041.539.041.813 0 3.318-2.048 6.162-4.95 7.339l-.566-2.111A5.758 5.758 0 0 0 17.796 12a5.764 5.764 0 0 0-3.818-5.419l.38-2.151a7.955 7.955 0 0 1 4.955 4.435l1.876-.502Z"/></g></svg>