<svg xmlns="http://www.w3.org/2000/svg" xml:space="preserve" fill-rule="evenodd" stroke-linejoin="round" stroke-miterlimit="1.5" clip-rule="evenodd" viewBox="0 0 100 100"><path fill="none" d="M0 0h100v100H0z"/><clipPath id="a"><path d="M101.428-1.047H-1.018v102.481h102.446V-1.047ZM46.17 49.482l.077 1.773 8.911 33.27 7.917-2.122-8.677-32.392 5.859-33.238-8.071-1.423-6.016 34.132Z"/></clipPath><g clip-path="url(#a)"><path fill="#00d845" d="M50.205 16.887c18.376 0 33.295 14.924 33.295 33.306C83.5 68.576 68.581 83.5 50.205 83.5S16.91 68.576 16.91 50.193c0-18.382 14.919-33.306 33.295-33.306Zm0 8.5C63.891 25.387 75 36.503 75 50.193 75 63.884 63.891 75 50.205 75 36.52 75 25.41 63.884 25.41 50.193c0-13.69 11.11-24.806 24.795-24.806Z"/></g><clipPath id="b"><path d="M0 0v46h50l1.368.241L99 63.578l-2.736 7.517L49.295 54H0v46h100V0H0Z"/></clipPath><g clip-path="url(#b)"><path fill="#00d845" d="M50 0c27.596 0 50 22.404 50 50s-22.404 50-50 50S0 77.596 0 50 22.404 0 50 0Zm0 8.5c22.904 0 41.5 18.596 41.5 41.5S72.904 91.5 50 91.5 8.5 72.904 8.5 50 27.096 8.5 50 8.5Z"/></g><clipPath id="c"><path d="M50 0c27.596 0 50 22.404 50 50s-22.404 50-50 50S0 77.596 0 50 22.404 0 50 0Zm0 39.549c5.768 0 10.451 4.683 10.451 10.451 0 5.768-4.683 10.451-10.451 10.451-5.768 0-10.451-4.683-10.451-10.451 0-5.768 4.683-10.451 10.451-10.451Z"/></clipPath><g clip-path="url(#c)"><path fill="none" stroke="#00d845" stroke-width="8" d="M50 50 5.171 75.882"/></g><path fill="#00d845" d="M37.243 52.746 35 45l8-9 11-3 4 4-6 6-4 1-3 4 1.12 4.24 3.112 3.09 4.964-.598 2.866-2.964 8.196-2.196 1.464 5.464-8.098 8.026L46.83 65.49l-5.587-5.815-4-6.929Z"/></svg>