<?xml version="1.0" encoding="UTF-8" standalone="no"?>
<!DOCTYPE svg PUBLIC "-//W3C//DTD SVG 1.1//EN" "http://www.w3.org/Graphics/SVG/1.1/DTD/svg11.dtd">
<svg width="100%" height="100%" viewBox="0 0 100 101" version="1.1" xmlns="http://www.w3.org/2000/svg" xmlns:xlink="http://www.w3.org/1999/xlink" xml:space="preserve" xmlns:serif="http://www.serif.com/" style="fill-rule:evenodd;clip-rule:evenodd;stroke-linejoin:round;stroke-miterlimit:1.5;">
    <rect id="Mark-mark-light" serif:id="Mark/mark-light" x="0" y="0.538" width="100" height="100" style="fill:none;"/>
    <g id="Mark">
        <clipPath id="_clip1">
            <path d="M101.538,-1L-1.538,-1L-1.538,102.077L101.538,102.077L101.538,-1ZM45.94,49.823L46.017,51.606L54.984,85.069L62.949,82.935L54.219,50.355L60.114,16.924L51.993,15.492L45.94,49.823Z"/>
        </clipPath>
        <g clip-path="url(#_clip1)">
            <path d="M50,17.038C68.489,17.038 83.5,32.049 83.5,50.538C83.5,69.028 68.489,84.038 50,84.038C31.511,84.038 16.5,69.028 16.5,50.538C16.5,32.049 31.511,17.038 50,17.038ZM50,25.538C63.798,25.538 75,36.741 75,50.538C75,64.336 63.798,75.538 50,75.538C36.202,75.538 25,64.336 25,50.538C25,36.741 36.202,25.538 50,25.538Z" style="fill:#30b27c;"/>
        </g>
        <clipPath id="_clip2">
            <path d="M0,0.538L0,46.538L50,46.538L51.368,46.78L99,64.116L96.264,71.634L49.295,54.538L0,54.538L0,100.538L100,100.538L100,0.538L0,0.538Z"/>
        </clipPath>
        <g clip-path="url(#_clip2)">
            <path d="M50,0.538C77.596,0.538 100,22.943 100,50.538C100,78.134 77.596,100.538 50,100.538C22.404,100.538 -0,78.134 -0,50.538C-0,22.943 22.404,0.538 50,0.538ZM50,9.038C72.904,9.038 91.5,27.634 91.5,50.538C91.5,73.443 72.904,92.038 50,92.038C27.096,92.038 8.5,73.443 8.5,50.538C8.5,27.634 27.096,9.038 50,9.038Z" style="fill:#30b27c;"/>
        </g>
        <clipPath id="_clip3">
            <path d="M50,0.538C77.596,0.538 100,22.943 100,50.538C100,78.134 77.596,100.538 50,100.538C22.404,100.538 -0,78.134 -0,50.538C-0,22.943 22.404,0.538 50,0.538ZM50,40.088C55.768,40.088 60.451,44.771 60.451,50.538C60.451,56.306 55.768,60.989 50,60.989C44.232,60.989 39.549,56.306 39.549,50.538C39.549,44.771 44.232,40.088 50,40.088Z"/>
        </clipPath>
        <g clip-path="url(#_clip3)">
            <path d="M50,50.538L5.171,76.42" style="fill:none;stroke:#30b27c;stroke-width:8px;"/>
        </g>
        <clipPath id="_clip4">
            <path d="M50,0.538C77.596,0.538 100,22.943 100,50.538C100,78.134 77.596,100.538 50,100.538C22.404,100.538 0,78.134 0,50.538C0,22.943 22.404,0.538 50,0.538ZM50,25.538C63.798,25.538 75,36.741 75,50.538C75,64.336 63.798,75.538 50,75.538C36.202,75.538 25,64.336 25,50.538C25,36.741 36.202,25.538 50,25.538Z"/>
        </clipPath>
        <g clip-path="url(#_clip4)">
            <path d="M50,50.538L100,37.141" style="fill:none;stroke:#30b27c;stroke-width:8px;"/>
        </g>
        <path d="M37.243,53.285L35,45.538L43,36.538L54,33.538L58,37.538L52,43.538L48,44.538L45,48.538L46.12,52.779L49.232,55.869L54.196,55.271L57.062,52.306L65.258,50.11L66.722,55.574L58.624,63.601L46.83,66.029L41.243,60.213L37.243,53.285Z" style="fill:#30b27c;"/>
    </g>
</svg>
